<svg width="24" height="24" viewBox="0 0 24 24" fill="none" xmlns="http://www.w3.org/2000/svg">
<path fill-rule="evenodd" clip-rule="evenodd" d="M6.03142 1.25H5.96858C5.29521 1.24999 4.74449 1.24998 4.29693 1.28655C3.83367 1.3244 3.41527 1.40514 3.02453 1.60423C2.413 1.91582 1.91582 2.413 1.60423 3.02453C1.40514 3.41527 1.3244 3.83367 1.28655 4.29693C1.24998 4.74449 1.24999 5.2952 1.25 5.96857V6.03142C1.24999 6.70479 1.24998 7.25551 1.28655 7.70307C1.3244 8.16633 1.40514 8.58473 1.60423 8.97547C1.91582 9.587 2.413 10.0842 3.02453 10.3958C3.41527 10.5949 3.83367 10.6756 4.29693 10.7134C4.74448 10.75 5.29518 10.75 5.96853 10.75H6.03144C6.70479 10.75 7.25552 10.75 7.70307 10.7134C8.16633 10.6756 8.58473 10.5949 8.97547 10.3958C9.587 10.0842 10.0842 9.587 10.3958 8.97547C10.5949 8.58473 10.6756 8.16633 10.7134 7.70307C10.75 7.25552 10.75 6.70483 10.75 6.03147V5.96856C10.75 5.29521 10.75 4.74448 10.7134 4.29693C10.6756 3.83367 10.5949 3.41527 10.3958 3.02453C10.0842 2.413 9.587 1.91582 8.97547 1.60423C8.58473 1.40514 8.16633 1.3244 7.70307 1.28655C7.25551 1.24998 6.70479 1.24999 6.03142 1.25ZM3.70552 2.94074C3.84956 2.86735 4.04858 2.81184 4.41908 2.78157C4.79833 2.75058 5.28756 2.75 6 2.75C6.71244 2.75 7.20167 2.75058 7.58092 2.78157C7.95142 2.81184 8.15045 2.86735 8.29448 2.94074C8.62377 3.10852 8.89148 3.37623 9.05926 3.70552C9.13265 3.84956 9.18816 4.04858 9.21843 4.41908C9.24942 4.79833 9.25 5.28756 9.25 6C9.25 6.71244 9.24942 7.20167 9.21843 7.58092C9.18816 7.95142 9.13265 8.15045 9.05926 8.29448C8.89148 8.62377 8.62377 8.89148 8.29448 9.05926C8.15045 9.13265 7.95142 9.18816 7.58092 9.21843C7.20167 9.24942 6.71244 9.25 6 9.25C5.28756 9.25 4.79833 9.24942 4.41908 9.21843C4.04858 9.18816 3.84956 9.13265 3.70552 9.05926C3.37623 8.89148 3.10852 8.62377 2.94074 8.29448C2.86735 8.15045 2.81184 7.95142 2.78157 7.58092C2.75058 7.20167 2.75 6.71244 2.75 6C2.75 5.28756 2.75058 4.79833 2.78157 4.41908C2.81184 4.04858 2.86735 3.84956 2.94074 3.70552C3.10852 3.37623 3.37623 3.10852 3.70552 2.94074Z" fill="#161616"/>
<path d="M18.75 2C18.75 1.58579 18.4142 1.25 18 1.25C17.5858 1.25 17.25 1.58579 17.25 2V5.25L14 5.25C13.5858 5.25 13.25 5.58579 13.25 6C13.25 6.41421 13.5858 6.75 14 6.75H17.25V10C17.25 10.4142 17.5858 10.75 18 10.75C18.4142 10.75 18.75 10.4142 18.75 10V6.75H22C22.4142 6.75 22.75 6.41421 22.75 6C22.75 5.58579 22.4142 5.25 22 5.25H18.75V2Z" fill="#161616"/>
<path fill-rule="evenodd" clip-rule="evenodd" d="M6.03142 13.25C6.7048 13.25 7.25551 13.25 7.70307 13.2866C8.16633 13.3244 8.58473 13.4051 8.97547 13.6042C9.587 13.9158 10.0842 14.413 10.3958 15.0245C10.5949 15.4153 10.6756 15.8337 10.7134 16.2969C10.75 16.7445 10.75 17.2952 10.75 17.9685V18.0314C10.75 18.7048 10.75 19.2555 10.7134 19.7031C10.6756 20.1663 10.5949 20.5847 10.3958 20.9755C10.0842 21.587 9.587 22.0842 8.97547 22.3958C8.58473 22.5949 8.16633 22.6756 7.70307 22.7134C7.25551 22.75 6.70481 22.75 6.03144 22.75H5.96856C5.29519 22.75 4.74449 22.75 4.29693 22.7134C3.83367 22.6756 3.41527 22.5949 3.02453 22.3958C2.413 22.0842 1.91582 21.587 1.60423 20.9755C1.40514 20.5847 1.3244 20.1663 1.28655 19.7031C1.24998 19.2555 1.24999 18.7048 1.25 18.0314V17.9686C1.24999 17.2952 1.24998 16.7445 1.28655 16.2969C1.3244 15.8337 1.40514 15.4153 1.60423 15.0245C1.91582 14.413 2.413 13.9158 3.02453 13.6042C3.41527 13.4051 3.83367 13.3244 4.29693 13.2866C4.7445 13.25 5.2952 13.25 5.96858 13.25H6.03142ZM4.41908 14.7816C4.04858 14.8118 3.84956 14.8673 3.70552 14.9407C3.37623 15.1085 3.10852 15.3762 2.94074 15.7055C2.86735 15.8496 2.81184 16.0486 2.78157 16.4191C2.75058 16.7983 2.75 17.2876 2.75 18C2.75 18.7124 2.75058 19.2017 2.78157 19.5809C2.81184 19.9514 2.86735 20.1504 2.94074 20.2945C3.10852 20.6238 3.37623 20.8915 3.70552 21.0593C3.84956 21.1327 4.04858 21.1882 4.41908 21.2184C4.79833 21.2494 5.28756 21.25 6 21.25C6.71244 21.25 7.20167 21.2494 7.58092 21.2184C7.95142 21.1882 8.15045 21.1327 8.29448 21.0593C8.62377 20.8915 8.89148 20.6238 9.05926 20.2945C9.13265 20.1504 9.18816 19.9514 9.21843 19.5809C9.24942 19.2017 9.25 18.7124 9.25 18C9.25 17.2876 9.24942 16.7983 9.21843 16.4191C9.18816 16.0486 9.13265 15.8496 9.05926 15.7055C8.89148 15.3762 8.62377 15.1085 8.29448 14.9407C8.15045 14.8673 7.95142 14.8118 7.58092 14.7816C7.20167 14.7506 6.71244 14.75 6 14.75C5.28756 14.75 4.79833 14.7506 4.41908 14.7816Z" fill="#161616"/>
<path fill-rule="evenodd" clip-rule="evenodd" d="M19.7031 13.2866C19.2555 13.25 18.7048 13.25 18.0314 13.25H17.9686C17.2952 13.25 16.7445 13.25 16.2969 13.2866C15.8337 13.3244 15.4153 13.4051 15.0245 13.6042C14.413 13.9158 13.9158 14.413 13.6042 15.0245C13.4051 15.4153 13.3244 15.8337 13.2866 16.2969C13.25 16.7445 13.25 17.2952 13.25 17.9686V18.0314C13.25 18.7048 13.25 19.2555 13.2866 19.7031C13.3244 20.1663 13.4051 20.5847 13.6042 20.9755C13.9158 21.587 14.413 22.0842 15.0245 22.3958C15.4153 22.5949 15.8337 22.6756 16.2969 22.7134C16.7445 22.75 17.2952 22.75 17.9686 22.75H18.0314C18.7048 22.75 19.2555 22.75 19.7031 22.7134C20.1663 22.6756 20.5847 22.5949 20.9755 22.3958C21.587 22.0842 22.0842 21.587 22.3958 20.9755C22.5949 20.5847 22.6756 20.1663 22.7134 19.7031C22.75 19.2555 22.75 18.7048 22.75 18.0314V17.9686C22.75 17.2952 22.75 16.7445 22.7134 16.2969C22.6756 15.8337 22.5949 15.4153 22.3958 15.0245C22.0842 14.413 21.587 13.9158 20.9755 13.6042C20.5847 13.4051 20.1663 13.3244 19.7031 13.2866ZM15.7055 14.9407C15.8496 14.8673 16.0486 14.8118 16.4191 14.7816C16.7983 14.7506 17.2876 14.75 18 14.75C18.7124 14.75 19.2017 14.7506 19.5809 14.7816C19.9514 14.8118 20.1504 14.8673 20.2945 14.9407C20.6238 15.1085 20.8915 15.3762 21.0593 15.7055C21.1327 15.8496 21.1882 16.0486 21.2184 16.4191C21.2494 16.7983 21.25 17.2876 21.25 18C21.25 18.7124 21.2494 19.2017 21.2184 19.5809C21.1882 19.9514 21.1327 20.1504 21.0593 20.2945C20.8915 20.6238 20.6238 20.8915 20.2945 21.0593C20.1504 21.1327 19.9514 21.1882 19.5809 21.2184C19.2017 21.2494 18.7124 21.25 18 21.25C17.2876 21.25 16.7983 21.2494 16.4191 21.2184C16.0486 21.1882 15.8496 21.1327 15.7055 21.0593C15.3762 20.8915 15.1085 20.6238 14.9407 20.2945C14.8673 20.1504 14.8118 19.9514 14.7816 19.5809C14.7506 19.2017 14.75 18.7124 14.75 18C14.75 17.2876 14.7506 16.7983 14.7816 16.4191C14.8118 16.0486 14.8673 15.8496 14.9407 15.7055C15.1085 15.3762 15.3762 15.1085 15.7055 14.9407Z" fill="#161616"/>
</svg>
