<svg width="13" height="13" viewBox="0 0 13 13" fill="none" xmlns="http://www.w3.org/2000/svg">
<path d="M0.980769 6.375C0.980769 3.42518 3.5412 0.980769 6.76731 0.980769C7.05593 0.980769 7.33934 1.00044 7.61614 1.03836C7.88447 1.07511 8.13178 0.887388 8.16854 0.619061C8.2053 0.350735 8.01757 0.103418 7.74924 0.0666623C7.42842 0.0227157 7.10054 0 6.76731 0C3.06012 0 0 2.82485 0 6.375C0 9.92515 3.06012 12.75 6.76731 12.75C7.10054 12.75 7.42842 12.7273 7.74924 12.6833C8.01757 12.6466 8.2053 12.3993 8.16854 12.1309C8.13178 11.8626 7.88447 11.6749 7.61614 11.7116C7.33934 11.7496 7.05593 11.7692 6.76731 11.7692C3.5412 11.7692 0.980769 9.32482 0.980769 6.375Z" fill="#D92D20"/>
<path d="M10.9668 4.38874C10.7726 4.19997 10.4621 4.20438 10.2734 4.39859C10.0846 4.5928 10.089 4.90326 10.2832 5.09203C10.3889 5.19473 10.557 5.32695 10.717 5.45264L10.7542 5.48188C10.9149 5.60802 11.0867 5.7429 11.2493 5.88065L11.254 5.88462H5.72115C5.45032 5.88462 5.23077 6.10417 5.23077 6.375C5.23077 6.64583 5.45032 6.86538 5.72115 6.86538H11.254L11.2493 6.86935C11.0867 7.00709 10.9149 7.14195 10.7543 7.26807L10.717 7.29736C10.557 7.42305 10.3889 7.55527 10.2832 7.65797C10.089 7.84674 10.0846 8.1572 10.2734 8.35141C10.4621 8.54562 10.7726 8.55003 10.9668 8.36126C11.0265 8.30326 11.1453 8.20805 11.3228 8.06865L11.362 8.03788C11.5203 7.9136 11.7061 7.76782 11.8833 7.61761C12.0733 7.45663 12.2706 7.27645 12.424 7.09633C12.5009 7.00607 12.5767 6.90433 12.6353 6.79489C12.6918 6.68933 12.75 6.54388 12.75 6.375C12.75 6.20612 12.6918 6.06067 12.6353 5.95512C12.5767 5.84567 12.5009 5.74393 12.424 5.65367C12.2706 5.47355 12.0733 5.29337 11.8833 5.13239C11.7061 4.98218 11.5203 4.83639 11.362 4.71212L11.3228 4.68135C11.1453 4.54195 11.0265 4.44674 10.9668 4.38874Z" fill="#D92D20"/>
</svg>
