<svg width="20" height="20" viewBox="0 0 20 20" fill="none" xmlns="http://www.w3.org/2000/svg">
<path d="M9.99994 13C9.44765 13 8.99994 13.4477 8.99994 14C8.99994 14.5523 9.44765 15 9.99994 15H10.0089C10.5612 15 11.0089 14.5523 11.0089 14C11.0089 13.4477 10.5612 13 10.0089 13H9.99994Z" fill="black"/>
<path fill-rule="evenodd" clip-rule="evenodd" d="M9.99993 0.25C9.37116 0.25 8.83885 0.483066 8.31583 0.833529C7.82118 1.16499 7.26885 1.64833 6.60463 2.22959L0.74515 7.35692C0.235671 7.80273 0.138558 8.45954 0.36686 8.98874C0.591447 9.50934 1.11589 9.88428 1.76232 9.88428C1.76639 9.88428 1.77 9.88456 1.77317 9.88499L1.77317 13.1392C1.77314 14.4846 1.77312 15.5762 1.8983 16.4362C2.02939 17.3368 2.3109 18.0912 2.95281 18.6841C3.58625 19.2691 4.37792 19.5185 5.32338 19.6359C6.24222 19.75 7.41347 19.75 8.88023 19.75H11.1196C12.5863 19.75 13.7576 19.75 14.6765 19.6359C15.6219 19.5185 16.4136 19.2691 17.0471 18.6841C17.689 18.0912 17.9705 17.3368 18.1016 16.4362C18.2267 15.5762 18.2267 14.4846 18.2267 13.1392V9.88499C18.2288 9.88471 18.231 9.88449 18.2335 9.88438C18.2348 9.88432 18.2361 9.88428 18.2375 9.88428C18.884 9.88428 19.4084 9.50934 19.633 8.98874C19.8613 8.45953 19.7642 7.80273 19.2547 7.35692L13.3953 2.2296C12.731 1.64834 12.1787 1.16499 11.684 0.833529C11.161 0.483065 10.6287 0.25 9.99993 0.25ZM7.55548 3.39075C8.26616 2.76887 8.74611 2.35083 9.15083 2.07964C9.53632 1.82132 9.77748 1.75 9.99993 1.75C10.2224 1.75 10.4635 1.82132 10.849 2.07964C11.2538 2.35083 11.7337 2.76887 12.4444 3.39075L18.1536 8.38659C17.4083 8.4276 16.7267 9.01068 16.7267 9.83705V13.0806C16.7267 14.4987 16.7248 15.4807 16.6172 16.2202C16.5137 16.9315 16.3259 17.3082 16.0293 17.5822C15.7242 17.864 15.2913 18.048 14.4916 18.1474C13.6761 18.2486 12.5982 18.25 11.068 18.25H8.93182C7.40167 18.25 6.32381 18.2486 5.50823 18.1474C4.70853 18.048 4.27566 17.864 3.97058 17.5822C3.67396 17.3082 3.48621 16.9315 3.38266 16.2202C3.27503 15.4807 3.27317 14.4987 3.27317 13.0806V9.83705C3.27317 9.01068 2.59154 8.4276 1.84626 8.38659L7.55548 3.39075Z" fill="black"/>
</svg>
