<svg width="18" height="18" viewBox="0 0 18 18" fill="none" xmlns="http://www.w3.org/2000/svg">
<path d="M7.12499 6.50009C7.12499 6.15491 7.40481 5.87509 7.74999 5.87509L10.25 5.87509C10.5952 5.87509 10.875 6.15491 10.875 6.50009C10.875 6.84527 10.5952 7.12509 10.25 7.12509L7.74999 7.12509C7.40481 7.12509 7.12499 6.84527 7.12499 6.50009Z" fill="#361F15"/>
<path fill-rule="evenodd" clip-rule="evenodd" d="M6.78243 0.041755L11.2178 0.0417558C11.798 0.0417444 12.2779 0.0417346 12.6701 0.0796439C13.0808 0.11934 13.4512 0.204472 13.7963 0.40899C14.1463 0.616365 14.3881 0.897663 14.5972 1.23546C14.792 1.55017 14.9799 1.95105 15.2006 2.42186L15.8144 3.73121C15.8207 3.74446 15.8265 3.75796 15.8319 3.7717C15.8344 3.77789 15.8367 3.78409 15.8389 3.79031C15.8658 3.86536 15.8773 3.94279 15.875 4.01887L15.875 7.60038C15.875 8.88425 15.875 9.91064 15.7678 10.716C15.6571 11.5483 15.4217 12.2379 14.8806 12.7846C14.3386 13.3321 13.6534 13.571 12.8265 13.6833C12.028 13.7918 11.0109 13.7918 9.74106 13.7918L8.25893 13.7918C6.98907 13.7918 5.97197 13.7918 5.17346 13.6833C4.34656 13.571 3.66142 13.3321 3.1194 12.7846C2.57826 12.2379 2.34292 11.5483 2.23215 10.716C2.12496 9.91065 2.12498 8.88426 2.12499 7.60039L2.12499 4.00039C2.12499 3.98771 2.12537 3.97482 2.12611 3.96233C2.13132 3.87492 2.15449 3.79236 2.19198 3.71827L2.79968 2.42186C3.02034 1.95105 3.20824 1.55017 3.40309 1.23546C3.61223 0.897661 3.85401 0.616364 4.20395 0.408989C4.54907 0.204473 4.91951 0.119338 5.33019 0.0796437C5.72239 0.0417361 6.20223 0.0417454 6.78243 0.041755ZM3.73337 3.37509L14.2669 3.37509L14.0833 2.98331C13.8442 2.4732 13.6864 2.13902 13.5344 1.89347C13.3924 1.66413 13.2815 1.5569 13.1591 1.48435C13.0318 1.40895 12.8631 1.35413 12.5498 1.32385C12.2248 1.29243 11.8057 1.29176 11.1876 1.29176L6.81264 1.29176C6.19463 1.29176 5.77544 1.29243 5.45045 1.32385C5.13713 1.35413 4.96844 1.40896 4.8412 1.48435C4.71879 1.5569 4.60787 1.66413 4.46588 1.89347C4.31385 2.13902 4.15613 2.4732 3.91701 2.98331L3.73337 3.37509ZM3.37499 4.62509L3.37499 7.55451C3.37499 8.89482 3.37629 9.83781 3.47123 10.5511C3.56386 11.2471 3.73532 11.6299 4.00776 11.9052C4.27934 12.1795 4.65573 12.3515 5.34168 12.4447C6.04628 12.5404 6.97825 12.5418 8.30555 12.5418L9.69444 12.5418C11.0217 12.5418 11.9537 12.5404 12.6583 12.4447C13.3443 12.3515 13.7206 12.1795 13.9922 11.9052C14.2647 11.6299 14.4361 11.2471 14.5288 10.5511C14.6237 9.83781 14.625 8.89482 14.625 7.55451L14.625 4.62509L3.37499 4.62509Z" fill="#361F15"/>
<path d="M17.9583 17.3334C17.9583 15.8377 16.7458 14.6251 15.25 14.6251L2.74999 14.6251C1.25422 14.6251 0.0416572 15.8377 0.0416556 17.3334C0.0416562 17.6786 0.32148 17.9584 0.666656 17.9584C1.01183 17.9584 1.29166 17.6786 1.29166 17.3334C1.29166 16.528 1.94457 15.8751 2.74999 15.8751L4.20832 15.8751L4.20832 17.3334C4.20832 17.6786 4.48815 17.9584 4.83332 17.9584C5.1785 17.9584 5.45832 17.6786 5.45832 17.3334L5.45832 15.8751L8.37499 15.8751L8.37499 17.3334C8.37499 17.6786 8.65481 17.9584 8.99999 17.9584C9.34517 17.9584 9.62499 17.6786 9.62499 17.3334L9.62499 15.8751L12.5417 15.8751L12.5417 17.3334C12.5417 17.6786 12.8215 17.9584 13.1667 17.9584C13.5118 17.9584 13.7917 17.6786 13.7917 17.3334L13.7917 15.8751L15.25 15.8751C16.0554 15.8751 16.7083 16.528 16.7083 17.3334C16.7083 17.6786 16.9881 17.9584 17.3333 17.9584C17.6785 17.9584 17.9583 17.6786 17.9583 17.3334Z" fill="#361F15"/>
</svg>
