<svg width="18" height="20" viewBox="0 0 18 20" fill="none" xmlns="http://www.w3.org/2000/svg">
<path d="M9.75 0C10.1642 0 10.5 0.335786 10.5 0.75V18.75C10.5 19.1642 10.1642 19.5 9.75 19.5C9.33579 19.5 9 19.1642 9 18.75V0.75C9 0.335786 9.33579 0 9.75 0Z" fill="#161616"/>
<path d="M0.75 1.5C0.335786 1.5 0 1.83579 0 2.25C0 2.66421 0.335786 3 0.75 3H5.75C6.16421 3 6.5 2.66421 6.5 2.25C6.5 1.83579 6.16421 1.5 5.75 1.5H0.75Z" fill="#161616"/>
<path d="M2.75 6.5C2.33579 6.5 2 6.83579 2 7.25C2 7.66421 2.33579 8 2.75 8H5.75C6.16421 8 6.5 7.66421 6.5 7.25C6.5 6.83579 6.16421 6.5 5.75 6.5H2.75Z" fill="#161616"/>
<path d="M0 12.25C0 11.8358 0.335786 11.5 0.75 11.5H5.75C6.16421 11.5 6.5 11.8358 6.5 12.25C6.5 12.6642 6.16421 13 5.75 13H0.75C0.335786 13 0 12.6642 0 12.25Z" fill="#161616"/>
<path d="M2.75 16.5C2.33579 16.5 2 16.8358 2 17.25C2 17.6642 2.33579 18 2.75 18H5.75C6.16421 18 6.5 17.6642 6.5 17.25C6.5 16.8358 6.16421 16.5 5.75 16.5H2.75Z" fill="#161616"/>
<path d="M16.2795 5.66595C16.6021 5.40611 17.0742 5.45696 17.334 5.77954C17.5939 6.10211 17.543 6.57426 17.2205 6.8341L15.6783 8.07637C15.0078 8.61645 14.5683 8.97273 14.2865 9.27324C14.0158 9.56187 14 9.68697 14 9.75003C14 9.81308 14.0158 9.93818 14.2865 10.2268C14.5683 10.5273 15.0078 10.8836 15.6783 11.4237L17.2205 12.666C17.543 12.9258 17.5939 13.3979 17.334 13.7205C17.0742 14.0431 16.6021 14.0939 16.2795 13.8341L14.6948 12.5576C14.0785 12.0612 13.5548 11.6394 13.1924 11.2529C12.8105 10.8457 12.5 10.3676 12.5 9.75003C12.5 9.13243 12.8105 8.65436 13.1924 8.24713C13.5548 7.86064 14.0785 7.43886 14.6948 6.94244L16.2795 5.66595Z" fill="#161616"/>
</svg>
