<svg width="16" height="16" viewBox="0 0 16 16" fill="none" xmlns="http://www.w3.org/2000/svg">
<path fill-rule="evenodd" clip-rule="evenodd" d="M7.01904 1.0829C7.31578 0.888647 7.67799 0.833344 8 0.833344C8.32201 0.833344 8.68422 0.888647 8.98096 1.0829C9.31016 1.2984 9.5 1.64723 9.5 2.08334C9.5 2.39279 9.40584 2.71293 9.25261 2.98955C11.3543 3.52435 12.9414 5.37424 13.0604 7.63441C13.0665 7.74943 13.071 7.85957 13.0753 7.96568C13.0901 8.32669 13.1029 8.641 13.1683 8.94218C13.2465 9.30209 13.3911 9.58503 13.6852 9.80561C14.1981 10.1903 14.5 10.794 14.5 11.4351C14.5 12.356 13.7752 13.1667 12.8 13.1667H10.45C10.2184 14.3078 9.20948 15.1667 8 15.1667C6.79052 15.1667 5.78164 14.3078 5.55001 13.1667H3.2C2.22479 13.1667 1.5 12.356 1.5 11.4351C1.5 10.794 1.80185 10.1903 2.31475 9.80561C2.60886 9.58503 2.7535 9.30209 2.83166 8.94218C2.89707 8.641 2.90993 8.32669 2.9247 7.96568C2.92904 7.85958 2.93355 7.74942 2.9396 7.63441C3.05856 5.37424 4.64572 3.52435 6.74739 2.98955C6.59416 2.71293 6.5 2.39279 6.5 2.08334C6.5 1.64723 6.68984 1.2984 7.01904 1.0829ZM6.58535 13.1667C6.79127 13.7493 7.34689 14.1667 8 14.1667C8.65311 14.1667 9.20873 13.7493 9.41465 13.1667H6.58535ZM12.8 12.1667C13.1824 12.1667 13.5 11.8451 13.5 11.4351C13.5 11.1088 13.3463 10.8014 13.0852 10.6056C12.5479 10.2026 12.3049 9.67839 12.1911 9.15441C12.1053 8.75943 12.0883 8.32946 12.0735 7.95613C12.0698 7.86242 12.0663 7.77209 12.0618 7.68697C11.9481 5.52667 10.1633 3.83334 8 3.83334C5.83671 3.83334 4.05192 5.52667 3.93822 7.68697C3.93374 7.77215 3.93017 7.86235 3.92646 7.95613C3.91168 8.32946 3.89466 8.75943 3.80888 9.15441C3.69508 9.67839 3.45213 10.2026 2.91475 10.6056C2.65366 10.8014 2.5 11.1088 2.5 11.4351C2.5 11.8451 2.81761 12.1667 3.2 12.1667H12.8ZM8.30582 2.61718C8.17645 2.79123 8.05794 2.83334 8 2.83334C7.94206 2.83334 7.82355 2.79123 7.69418 2.61718C7.56853 2.44813 7.5 2.23819 7.5 2.08334C7.5 2.01405 7.5136 1.98018 7.5211 1.96593C7.5282 1.95244 7.53986 1.93717 7.56675 1.91957C7.63194 1.8769 7.76973 1.83334 8 1.83334C8.23027 1.83334 8.36806 1.8769 8.43325 1.91957C8.46014 1.93717 8.4718 1.95244 8.4789 1.96593C8.4864 1.98018 8.5 2.01405 8.5 2.08334C8.5 2.23819 8.43147 2.44813 8.30582 2.61718Z" fill="#161616"/>
</svg>
