<svg width="16" height="17" viewBox="0 0 16 17" fill="none" xmlns="http://www.w3.org/2000/svg">
<path d="M5.63334 3.54166C5.63334 3.24826 5.40949 3.01041 5.13334 3.01041C4.8572 3.01041 4.63334 3.24826 4.63334 3.54166V3.59661H3.33334C3.0572 3.59661 2.83334 3.83446 2.83334 4.12786C2.83334 4.42127 3.0572 4.65911 3.33334 4.65911H5.6117C5.48796 4.93712 5.33673 5.21082 5.16623 5.47735L5.1639 5.47391C5.02852 5.27444 4.93867 5.12261 4.9094 5.05587C4.79274 4.78994 4.49527 4.67483 4.24498 4.79877C3.99469 4.92272 3.88635 5.23878 4.00301 5.50472C4.07659 5.67246 4.21817 5.897 4.35279 6.09536C4.40914 6.17839 4.46874 6.26331 4.5288 6.34632C4.20468 6.73952 3.86464 7.0952 3.55205 7.4006C3.34878 7.5992 3.33552 7.93527 3.52244 8.15125C3.70935 8.36722 4.02566 8.38131 4.22892 8.18271C4.53302 7.88561 4.86948 7.53601 5.19899 7.14484L5.58728 7.57374C5.77872 7.78519 6.09524 7.79172 6.29425 7.58832C6.49327 7.38492 6.49941 7.04861 6.30798 6.83716L5.83448 6.31415C6.17931 5.81168 6.48855 5.25457 6.69606 4.65911H7.33334C7.60949 4.65911 7.83334 4.42127 7.83334 4.12786C7.83334 3.83446 7.60949 3.59661 7.33334 3.59661H5.63334V3.54166Z" fill="#161616"/>
<path fill-rule="evenodd" clip-rule="evenodd" d="M11.1282 9.004C11.0505 8.80603 10.8685 8.67707 10.6666 8.67707C10.4648 8.67707 10.2827 8.80603 10.2051 9.004L8.53844 13.254C8.43223 13.5248 8.55277 13.8359 8.80767 13.9487C9.06257 14.0616 9.35531 13.9335 9.46152 13.6627L9.88887 12.5729H11.4444L11.8718 13.6627C11.978 13.9335 12.2707 14.0616 12.5256 13.9487C12.7805 13.8359 12.9011 13.5248 12.7948 13.254L11.1282 9.004ZM10.6666 10.5896L11.0278 11.5104H10.3055L10.6666 10.5896Z" fill="#161616"/>
<path fill-rule="evenodd" clip-rule="evenodd" d="M5.29676 0.885407H5.36993C6.28165 0.885393 7.01654 0.885381 7.59451 0.967945C8.19458 1.05366 8.69983 1.23705 9.10111 1.66341C9.50239 2.08976 9.67498 2.62659 9.75566 3.26417C9.83337 3.87826 9.83336 4.65907 9.83334 5.62777V6.55451C10.0824 6.55207 10.3477 6.55207 10.6301 6.55207H10.7033C11.615 6.55206 12.3499 6.55205 12.9278 6.63461C13.5279 6.72033 14.0332 6.90372 14.4344 7.33007C14.8357 7.75643 15.0083 8.29326 15.089 8.93083C15.1667 9.54494 15.1667 10.3257 15.1667 11.2945V11.3722C15.1667 12.3409 15.1667 13.1217 15.089 13.7358C15.0083 14.3734 14.8357 14.9102 14.4344 15.3366C14.0332 15.7629 13.5279 15.9463 12.9278 16.032C12.3499 16.1146 11.615 16.1146 10.7033 16.1146H10.6301C9.71837 16.1146 8.98349 16.1146 8.40551 16.032C7.80544 15.9463 7.30019 15.7629 6.89891 15.3366C6.49763 14.9102 6.32504 14.3734 6.24436 13.7358C6.16665 13.1217 6.16666 12.3409 6.16668 11.3722V11.2945C6.16667 10.9945 6.16667 10.7125 6.16897 10.4479H5.29676C4.38505 10.4479 3.65015 10.4479 3.07218 10.3654C2.47211 10.2797 1.96686 10.0963 1.56558 9.66991C1.1643 9.24355 0.991704 8.70673 0.911027 8.06915C0.83332 7.45505 0.83333 6.67424 0.833344 5.70554V5.62779C0.83333 4.65908 0.83332 3.87827 0.911027 3.26417C0.991704 2.62659 1.1643 2.08976 1.56558 1.66341C1.96686 1.23705 2.4721 1.05366 3.07218 0.967945C3.65015 0.885381 4.38504 0.885393 5.29676 0.885407ZM6.20186 9.38541C6.21249 9.22474 6.22633 9.0733 6.24436 8.93083C6.32504 8.29326 6.49763 7.75643 6.89891 7.33007C7.30019 6.90372 7.80544 6.72033 8.40551 6.63461C8.53959 6.61546 8.68212 6.60075 8.83334 6.58945V5.66666C8.83334 4.6499 8.83228 3.94078 8.76458 3.40574C8.69881 2.88599 8.57851 2.61075 8.394 2.41471C8.2095 2.21867 7.95045 2.09085 7.46126 2.02097C6.9577 1.94904 6.29029 1.94791 5.33334 1.94791C4.3764 1.94791 3.70899 1.94904 3.20542 2.02097C2.71624 2.09085 2.45719 2.21867 2.27268 2.41471C2.08818 2.61075 1.96788 2.88599 1.90211 3.40574C1.83441 3.94078 1.83334 4.6499 1.83334 5.66666C1.83334 6.68341 1.83441 7.39253 1.90211 7.92757C1.96788 8.44733 2.08818 8.72257 2.27268 8.91861C2.45719 9.11465 2.71624 9.24247 3.20542 9.31235C3.70899 9.38428 4.3764 9.38541 5.33334 9.38541H6.20186ZM7.60602 8.08137C7.79053 7.88533 8.04957 7.75752 8.53876 7.68764C9.04233 7.6157 9.70973 7.61457 10.6667 7.61457C11.6236 7.61457 12.291 7.6157 12.7946 7.68764C13.2838 7.75752 13.5428 7.88533 13.7273 8.08137C13.9118 8.27741 14.0321 8.55265 14.0979 9.07241C14.1656 9.60745 14.1667 10.3166 14.1667 11.3333C14.1667 12.3501 14.1656 13.0592 14.0979 13.5942C14.0321 14.114 13.9118 14.3892 13.7273 14.5853C13.5428 14.7813 13.2838 14.9091 12.7946 14.979C12.291 15.0509 11.6236 15.0521 10.6667 15.0521C9.70973 15.0521 9.04233 15.0509 8.53876 14.979C8.04957 14.9091 7.79053 14.7813 7.60602 14.5853C7.42151 14.3892 7.30121 14.114 7.23544 13.5942C7.16774 13.0592 7.16668 12.3501 7.16668 11.3333C7.16668 10.3166 7.16774 9.60745 7.23544 9.07241C7.30121 8.55265 7.42151 8.27741 7.60602 8.08137Z" fill="#161616"/>
<path d="M2.66668 11.1562C2.94282 11.1562 3.16668 11.3941 3.16668 11.6875C3.16668 12.196 3.16728 12.5373 3.1922 12.7976C3.21627 13.0489 3.25881 13.1651 3.30712 13.2419C3.36792 13.3386 3.44604 13.4216 3.53704 13.4862C3.60934 13.5375 3.71865 13.5827 3.95523 13.6083C4.20017 13.6348 4.52145 13.6354 5.00001 13.6354C5.27615 13.6354 5.50001 13.8733 5.50001 14.1667C5.50001 14.4601 5.27615 14.6979 5.00001 14.6979H4.97445C4.52806 14.6979 4.15558 14.6979 3.85402 14.6653C3.53838 14.6312 3.24546 14.557 2.98147 14.3696C2.78128 14.2275 2.60941 14.0449 2.47565 13.8322C2.29925 13.5517 2.22944 13.2405 2.19733 12.9051C2.16666 12.5847 2.16667 12.1889 2.16668 11.7147L2.16668 11.6875C2.16668 11.3941 2.39054 11.1562 2.66668 11.1562Z" fill="#161616"/>
<path d="M12.8333 5.31249C12.8333 5.60589 13.0572 5.84374 13.3333 5.84374C13.6095 5.84374 13.8333 5.60589 13.8333 5.31249L13.8333 5.28533C13.8334 4.81108 13.8334 4.41526 13.8027 4.09488C13.7706 3.7595 13.7008 3.44828 13.5244 3.16779C13.3906 2.95509 13.2187 2.77247 13.0186 2.63036C12.7546 2.44293 12.4616 2.36876 12.146 2.33464C11.8444 2.30205 11.472 2.30206 11.0256 2.30207L11 2.30207C10.7239 2.30207 10.5 2.53992 10.5 2.83332C10.5 3.12672 10.7239 3.36457 11 3.36457C11.4786 3.36457 11.7999 3.36522 12.0448 3.39169C12.2814 3.41726 12.3907 3.46246 12.463 3.51379C12.554 3.57839 12.6321 3.6614 12.6929 3.75808C12.7412 3.8349 12.7838 3.95104 12.8078 4.20241C12.8327 4.46266 12.8333 4.80402 12.8333 5.31249Z" fill="#161616"/>
</svg>
